<svg xmlns="http://www.w3.org/2000/svg" width="223.25" height="35" viewBox="0 0 223.25 35"><rect class="svg__rect" x="0" y="0" width="85.53" height="35" fill="#31C4F3"/><rect class="svg__rect" x="83.53" y="0" width="139.72" height="35" fill="#EA4560"/><path class="svg__text" d="M13.78 19.42L13.78 19.42L15.27 19.42Q15.27 20.15 15.75 20.55Q16.23 20.95 17.12 20.95L17.12 20.95Q17.90 20.95 18.29 20.63Q18.68 20.32 18.68 19.80L18.68 19.80Q18.68 19.24 18.28 18.94Q17.89 18.63 16.85 18.32Q15.82 18.01 15.21 17.63L15.21 17.63Q14.05 16.90 14.05 15.72L14.05 15.72Q14.05 14.69 14.89 14.02Q15.73 13.35 17.07 13.35L17.07 13.35Q17.96 13.35 18.66 13.68Q19.36 14.01 19.75 14.61Q20.15 15.22 20.15 15.96L20.15 15.96L18.68 15.96Q18.68 15.29 18.26 14.91Q17.84 14.54 17.06 14.54L17.06 14.54Q16.33 14.54 15.93 14.85Q15.53 15.16 15.53 15.71L15.53 15.71Q15.53 16.18 15.96 16.50Q16.40 16.81 17.39 17.10Q18.39 17.40 18.99 17.78Q19.60 18.16 19.88 18.65Q20.16 19.13 20.16 19.79L20.16 19.79Q20.16 20.86 19.34 21.49Q18.52 22.12 17.12 22.12L17.12 22.12Q16.20 22.12 15.42 21.77Q14.64 21.43 14.21 20.83Q13.78 20.22 13.78 19.42ZM26.13 14.66L23.49 14.66L23.49 13.47L30.26 13.47L30.26 14.66L27.60 14.66L27.60 22L26.13 22L26.13 14.66ZM34.80 22L33.25 22L36.48 13.47L37.81 13.47L41.04 22L39.49 22L38.79 20.01L35.49 20.01L34.80 22ZM37.14 15.28L35.90 18.82L38.38 18.82L37.14 15.28ZM46.67 14.66L44.04 14.66L44.04 13.47L50.80 13.47L50.80 14.66L48.14 14.66L48.14 22L46.67 22L46.67 14.66ZM54.42 19.16L54.42 19.16L54.42 13.47L55.90 13.47L55.90 19.18Q55.90 20.03 56.33 20.48Q56.77 20.93 57.61 20.93L57.61 20.93Q59.32 20.93 59.32 19.13L59.32 19.13L59.32 13.47L60.80 13.47L60.80 19.17Q60.80 20.53 59.93 21.32Q59.06 22.12 57.61 22.12L57.61 22.12Q56.15 22.12 55.29 21.33Q54.42 20.55 54.42 19.16ZM64.94 19.42L64.94 19.42L66.42 19.42Q66.42 20.15 66.90 20.55Q67.38 20.95 68.28 20.95L68.28 20.95Q69.05 20.95 69.44 20.63Q69.83 20.32 69.83 19.80L69.83 19.80Q69.83 19.24 69.43 18.94Q69.04 18.63 68.01 18.32Q66.97 18.01 66.37 17.63L66.37 17.63Q65.20 16.90 65.20 15.72L65.20 15.72Q65.20 14.69 66.04 14.02Q66.88 13.35 68.22 13.35L68.22 13.35Q69.11 13.35 69.81 13.68Q70.51 14.01 70.91 14.61Q71.31 15.22 71.31 15.96L71.31 15.96L69.83 15.96Q69.83 15.29 69.41 14.91Q68.99 14.54 68.21 14.54L68.21 14.54Q67.48 14.54 67.08 14.85Q66.68 15.16 66.68 15.71L66.68 15.71Q66.68 16.18 67.12 16.50Q67.55 16.81 68.55 17.10Q69.54 17.40 70.14 17.78Q70.75 18.16 71.03 18.65Q71.31 19.13 71.31 19.79L71.31 19.79Q71.31 20.86 70.49 21.49Q69.68 22.12 68.28 22.12L68.28 22.12Q67.35 22.12 66.57 21.77Q65.80 21.43 65.37 20.83Q64.94 20.22 64.94 19.42Z" fill="#FFFFFF"/><path class="svg__text" d="M102.26 22L97.72 22L97.72 13.60L102.02 13.60Q103.62 13.60 104.46 14.19Q105.31 14.79 105.31 15.79L105.31 15.79Q105.31 16.39 105.01 16.87Q104.71 17.34 104.17 17.62L104.17 17.62Q104.90 17.87 105.30 18.41Q105.71 18.94 105.71 19.70L105.71 19.70Q105.71 20.80 104.82 21.40Q103.93 22 102.26 22L102.26 22ZM100.07 18.58L100.07 20.28L102.07 20.28Q103.31 20.28 103.31 19.43L103.31 19.43Q103.31 18.58 102.07 18.58L102.07 18.58L100.07 18.58ZM100.07 15.31L100.07 16.94L101.70 16.94Q102.90 16.94 102.90 16.12L102.90 16.12Q102.90 15.31 101.70 15.31L101.70 15.31L100.07 15.31ZM112.81 22L110.43 22L110.43 13.60L114.27 13.60Q115.41 13.60 116.25 13.98Q117.09 14.35 117.55 15.06Q118.00 15.76 118.00 16.71L118.00 16.71Q118.00 17.62 117.58 18.30Q117.15 18.98 116.36 19.36L116.36 19.36L118.17 22L115.62 22L114.10 19.77L112.81 19.77L112.81 22ZM112.81 15.47L112.81 17.93L114.12 17.93Q114.86 17.93 115.23 17.61Q115.60 17.29 115.60 16.71L115.60 16.71Q115.60 16.12 115.23 15.79Q114.86 15.47 114.12 15.47L114.12 15.47L112.81 15.47ZM122.36 17.80L122.36 17.80Q122.36 16.55 122.97 15.55Q123.57 14.56 124.63 14.00Q125.70 13.43 127.03 13.43L127.03 13.43Q128.36 13.43 129.42 14.00Q130.48 14.56 131.09 15.55Q131.70 16.55 131.70 17.80L131.70 17.80Q131.70 19.05 131.09 20.04Q130.48 21.04 129.42 21.60Q128.36 22.17 127.03 22.17L127.03 22.17Q125.70 22.17 124.63 21.60Q123.57 21.04 122.97 20.04Q122.36 19.05 122.36 17.80ZM124.76 17.80L124.76 17.80Q124.76 18.51 125.06 19.05Q125.36 19.60 125.88 19.90Q126.39 20.20 127.03 20.20L127.03 20.20Q127.67 20.20 128.18 19.90Q128.70 19.60 129.00 19.05Q129.29 18.51 129.29 17.80L129.29 17.80Q129.29 17.09 129.00 16.54Q128.70 16 128.18 15.70Q127.67 15.40 127.03 15.40L127.03 15.40Q126.39 15.40 125.88 15.70Q125.36 16 125.06 16.54Q124.76 17.09 124.76 17.80ZM138.78 22L136.42 22L136.42 13.60L138.78 13.60L138.78 17.09L142.03 13.60L144.65 13.60L141.22 17.32L144.83 22L142.07 22L139.67 18.95L138.78 19.90L138.78 22ZM155.68 22L148.93 22L148.93 13.60L155.53 13.60L155.53 15.44L151.29 15.44L151.29 16.85L155.02 16.85L155.02 18.63L151.29 18.63L151.29 20.17L155.68 20.17L155.68 22ZM162.82 22L160.48 22L160.48 13.60L162.44 13.60L166.15 18.07L166.15 13.60L168.48 13.60L168.48 22L166.52 22L162.82 17.52L162.82 22ZM187.00 22L180.61 22L180.61 13.60L182.99 13.60L182.99 20.11L187.00 20.11L187.00 22ZM190.99 17.80L190.99 17.80Q190.99 16.55 191.59 15.55Q192.19 14.56 193.26 14.00Q194.32 13.43 195.65 13.43L195.65 13.43Q196.98 13.43 198.05 14.00Q199.11 14.56 199.71 15.55Q200.32 16.55 200.32 17.80L200.32 17.80Q200.32 19.05 199.71 20.04Q199.11 21.04 198.05 21.60Q196.99 22.17 195.65 22.17L195.65 22.17Q194.32 22.17 193.26 21.60Q192.19 21.04 191.59 20.04Q190.99 19.05 190.99 17.80ZM193.38 17.80L193.38 17.80Q193.38 18.51 193.69 19.05Q193.99 19.60 194.50 19.90Q195.02 20.20 195.65 20.20L195.65 20.20Q196.29 20.20 196.81 19.90Q197.32 19.60 197.62 19.05Q197.92 18.51 197.92 17.80L197.92 17.80Q197.92 17.09 197.62 16.54Q197.32 16 196.81 15.70Q196.29 15.40 195.65 15.40L195.65 15.40Q195.01 15.40 194.50 15.70Q193.99 16 193.69 16.54Q193.38 17.09 193.38 17.80ZM211.44 22L205.05 22L205.05 13.60L207.43 13.60L207.43 20.11L211.44 20.11L211.44 22Z" fill="#FFFFFF" x="96.53"/></svg>